<svg width="332.969" height="85.839" xmlns="http://www.w3.org/2000/svg" xmlns:svg="http://www.w3.org/2000/svg">
 <g>
  <title>Layer 1</title>
  <path id="svg_2" d="m159.136,50.084c-0.969,2.422 -5.845,4.465 -9.206,3.089c-0.345,4.085 -1.129,7.768 -2.352,11.047c-1.223,3.279 -2.769,6.069 -4.638,8.37c-1.871,2.304 -4.014,4.072 -6.43,5.309c-2.417,1.237 -4.978,1.855 -7.681,1.855c-2.043,0 -3.934,-0.252 -5.674,-0.756c-1.741,-0.503 -3.236,-1.308 -4.488,-2.416c-1.251,-1.106 -2.23,-2.546 -2.934,-4.314c-0.704,-1.77 -1.057,-3.92 -1.057,-6.451c0,-1.727 0.18,-3.69 0.539,-5.891c0.36,-2.2 0.935,-4.467 1.726,-6.796c0.791,-2.331 1.812,-4.609 3.063,-6.84c1.252,-2.228 2.777,-4.221 4.574,-5.976c1.798,-1.754 3.877,-3.171 6.236,-4.25c2.358,-1.078 5.049,-1.618 8.069,-1.618c7.565,0 11.349,4.703 11.349,14.109c0,0.022 -0.017,0.073 0,0.087c4.726,2.337 8.408,-0.663 9.709,-2.93m-17.347,7.72c-0.921,-0.229 -1.547,-0.683 -1.877,-1.358c-0.331,-0.676 -0.496,-1.46 -0.496,-2.353c0,-1.235 0.251,-2.251 0.755,-3.042c0.503,-0.791 1.172,-1.374 2.007,-1.748c-0.058,-0.948 -0.159,-1.746 -0.303,-2.395c-0.144,-0.647 -0.345,-1.179 -0.604,-1.596s-0.583,-0.712 -0.97,-0.886c-0.389,-0.173 -0.885,-0.259 -1.489,-0.259c-1.065,0 -2.086,0.41 -3.064,1.231c-0.978,0.818 -1.906,1.904 -2.783,3.257c-0.878,1.352 -1.683,2.899 -2.417,4.639c-0.734,1.74 -1.359,3.53 -1.877,5.372s-0.921,3.661 -1.208,5.458c-0.288,1.799 -0.431,3.432 -0.431,4.899c0,1.467 0.078,2.661 0.237,3.581c0.158,0.921 0.416,1.646 0.777,2.179c0.359,0.532 0.826,0.899 1.402,1.1c0.575,0.202 1.279,0.303 2.115,0.303c1.063,0 2.135,-0.475 3.214,-1.425c1.078,-0.948 2.078,-2.242 2.999,-3.884c0.92,-1.639 1.733,-3.581 2.438,-5.825c0.704,-2.242 1.23,-4.659 1.575,-7.248" fill="#4E4E4E"/>
  <path id="svg_3" d="m179.053,66.827c0.545,-0.963 0.988,-2.142 1.333,-3.263l4.175,0.008c-0.834,2.389 -1.762,4.46 -2.783,6.215s-2.086,3.234 -3.193,4.442c-1.108,1.209 -2.243,2.188 -3.409,2.936c-1.165,0.749 -2.294,1.323 -3.387,1.726c-1.094,0.404 -2.136,0.676 -3.129,0.82c-0.992,0.144 -1.877,0.217 -2.653,0.217c-1.324,0 -2.561,-0.203 -3.711,-0.605c-1.151,-0.401 -2.151,-1.034 -2.999,-1.898c-0.849,-0.863 -1.518,-1.955 -2.007,-3.28c-0.488,-1.322 -0.831,-2.921 -0.734,-4.789c0.82,-15.762 9.039,-50.055 9.039,-50.055c5.333,-0.669 13.074,-1.77 13.074,-1.77s-9.519,43.844 -9.383,50.572c0.038,1.884 0.788,3.28 3.582,3.28c3.081,0 5.496,-3.337 6.185,-4.556" fill="#4E4E4E"/>
  <path id="svg_4" d="m215.18,65.255c0.194,-1.11 0.992,-4.4 0.992,-4.4c0.145,-0.576 0.238,-1.145 0.281,-1.704c0.043,-0.562 0.065,-1.116 0.065,-1.663c0,-1.409 -0.195,-2.739 -0.583,-3.991c-0.389,-1.251 -0.986,-2.351 -1.79,-3.301c-0.806,-0.95 -1.82,-1.697 -3.043,-2.244c-1.222,-0.546 -2.654,-0.819 -4.294,-0.819c-0.978,0 -1.956,0.131 -2.934,0.39l19.582,-13.723l-10.65,1.424l-17.044,13.42l7.058,-33.905l-13.075,1.812c0,0 -3.01,14.703 -6.154,31.77c-2.654,14.403 -7.118,31.09 -7.118,31.09l12.73,0l4.618,-21.835c1.236,-1.006 2.38,-1.803 3.429,-2.394c1.051,-0.589 2.079,-0.885 3.086,-0.885c1.208,0 2.043,0.39 2.503,1.164c0.46,0.777 0.691,1.813 0.691,3.108c0,0.49 -0.022,1.006 -0.066,1.553c-0.043,0.547 -0.137,1.108 -0.28,1.685l-0.733,3.45c-0.346,1.698 -0.519,3.236 -0.519,4.617c0,3.224 0.935,5.703 2.806,7.444c1.869,1.741 4.645,2.611 8.328,2.611c0.977,0 2.15,-0.159 3.516,-0.477c1.367,-0.314 2.784,-1.027 4.251,-2.135c1.467,-1.107 2.941,-2.748 4.423,-4.919c1.481,-2.172 2.841,-5.115 4.077,-8.825l-3.71,0c-0.461,1.151 -0.879,2.234 -1.403,3.172c-1.69,3.021 -3.88,6.307 -6.492,6.896c-6.028,1.359 -3.122,-5.091 -2.548,-8.386" fill="#4E4E4E"/>
  <path id="svg_5" d="m262.32,68.104c-0.257,2.519 1.207,3.798 3.623,3.798c0.863,0 1.661,-0.225 2.396,-0.669c0.733,-0.446 1.401,-1.043 2.006,-1.791c0.604,-0.747 1.138,-1.633 1.597,-2.654c0.461,-1.021 0.848,-2.093 1.166,-3.214l3.711,0c-0.834,2.387 -1.742,4.46 -2.72,6.213c-0.978,1.755 -1.991,3.236 -3.042,4.444c-1.05,1.209 -2.121,2.187 -3.214,2.934c-1.095,0.749 -2.158,1.325 -3.194,1.728c-1.035,0.402 -2.027,0.676 -2.977,0.818c-0.949,0.146 -1.812,0.217 -2.59,0.217c-2.502,0 -4.494,-0.684 -5.975,-2.051c-1.482,-1.365 -2.382,-3.386 -2.697,-6.062c-0.719,1.008 -1.51,1.993 -2.375,2.956c-0.862,0.965 -1.826,1.827 -2.891,2.59c-1.064,0.761 -2.251,1.381 -3.56,1.854c-1.309,0.475 -2.755,0.712 -4.336,0.712c-1.526,0 -2.993,-0.244 -4.402,-0.732c-1.409,-0.491 -2.661,-1.296 -3.754,-2.417c-1.093,-1.122 -1.971,-2.589 -2.632,-4.402c-0.661,-1.812 -0.992,-4.026 -0.992,-6.645c0,-2.014 0.202,-4.171 0.604,-6.474c0.403,-2.301 1.021,-4.602 1.855,-6.903s1.877,-4.51 3.128,-6.623c1.252,-2.114 2.719,-3.985 4.402,-5.61c1.682,-1.625 3.589,-2.92 5.718,-3.883c2.128,-0.964 4.472,-1.447 7.033,-1.447c2.503,0 4.322,0.433 5.458,1.295c1.136,0.864 1.704,1.929 1.704,3.193l0,0.647l0.951,-4.703c0,0 8.299,-0.659 12.873,-1.425c-3.562,11.378 -6.571,28.556 -6.874,34.306m-7.768,-24.467c0,-0.26 -0.058,-0.582 -0.172,-0.972c-0.115,-0.387 -0.31,-0.761 -0.583,-1.121c-0.274,-0.359 -0.641,-0.662 -1.1,-0.907c-0.461,-0.242 -1.052,-0.365 -1.771,-0.365c-1.235,0 -2.409,0.402 -3.517,1.209c-1.107,0.804 -2.121,1.877 -3.043,3.214c-0.92,1.338 -1.739,2.854 -2.458,4.551c-0.719,1.699 -1.331,3.447 -1.834,5.245c-0.503,1.797 -0.884,3.567 -1.144,5.307c-0.258,1.74 -0.388,3.302 -0.388,4.683c0,1.696 0.158,3.007 0.475,3.927c0.316,0.92 0.697,1.603 1.143,2.048c0.446,0.448 0.928,0.713 1.446,0.799c0.518,0.087 0.977,0.129 1.381,0.129c0.662,0 1.358,-0.165 2.092,-0.495s1.438,-0.819 2.115,-1.468c0.674,-0.646 1.293,-1.46 1.855,-2.438c0.561,-0.979 0.984,-2.115 1.271,-3.408l4.232,-19.938z" fill="#4E4E4E"/>
  <path id="svg_9" d="m118.65652,43.25219c0,22.67021 -18.36595,41.04176 -41.04176,41.04176c-22.6646,0 -41.04176,-18.37155 -41.04176,-41.04176c0,-22.6646 18.37716,-41.03055 41.04176,-41.03055c22.67021,-0.0056 41.04176,18.36595 41.04176,41.03055" fill="#D75EA1"/>
  <path id="svg_1" d="m64.47566,55.87808c1.93079,-8.26917 5.30748,-28.45216 9.58928,-39.29614c1.06324,-2.69177 8.03941,-3.90884 11.97088,-0.86209c-2.91802,9.99007 -5.63248,25.04961 -5.63248,25.04961c1.39087,-0.09979 2.70834,-0.44986 3.95243,-1.05103c1.24409,-0.60035 2.39994,-1.37165 3.47017,-2.30899c1.06936,-0.93897 2.03213,-2.02353 2.88832,-3.25041c0.85531,-1.22606 1.58482,-2.52246 2.18677,-3.88757c0.60195,-1.36429 1.06237,-2.76539 1.38388,-4.20574c0.32063,-1.44036 0.48139,-2.84881 0.48139,-4.22537c0,-1.42727 -0.19395,-2.77438 -0.58186,-4.03889c-0.3879,-1.26369 -0.98898,-2.37851 -1.80585,-3.34284c-0.816,-0.96351 -1.87225,-1.7209 -3.16789,-2.27218c-1.29826,-0.55046 -2.84289,-0.82692 -4.63476,-0.82692c-3.34349,0 -6.33228,0.42695 -8.96636,1.27759c-2.63408,0.85145 -4.86104,2.07915 -6.68,3.68146s-3.54531,3.56122 -4.69592,5.87675c-1.15061,2.31635 -1.7246,4.93942 -1.7246,7.86921c0,0.9766 0.07164,1.77161 0.21492,2.38505c0.14415,0.61344 0.2953,1.10256 0.45518,1.46489c0.15988,0.36397 0.3119,0.64534 0.45518,0.84573c0.14415,0.20039 0.21667,0.37543 0.21667,0.5251c-1.6949,0 -3.19585,-0.13169 -4.50546,-0.39342c-1.31049,-0.26255 -2.40431,-0.68133 -3.28234,-1.25796c-0.87977,-0.57582 -1.55075,-1.34057 -2.01378,-2.29181c-0.46304,-0.9496 -0.69456,-2.12741 -0.69456,-3.52932c0,-1.70291 0.4709,-3.38046 1.41358,-5.03348c0.94268,-1.6522 2.25841,-3.19561 3.88167,-4.69404c4.84619,-4.47566 10.4411,-7.60256 18.92521,-9.48542c2.31345,-0.51284 4.61991,-0.76884 6.92113,-0.76884c3.36883,0 6.27113,0.42041 8.70514,1.25796c2.43401,0.83837 4.44605,1.95974 6.03873,3.36083c1.59093,1.40273 2.76076,3.0124 3.51036,4.82654c0.74785,1.81578 1.12265,3.71254 1.12265,5.69027c0,2.45458 -0.54167,4.90834 -1.62501,7.3621c-1.08246,2.45458 -2.64719,4.66378 -4.6933,6.62842c-2.04611,1.96628 -4.53429,3.56286 -7.4628,4.78974c-2.92851,1.22688 -6.23793,1.84032 -9.92914,1.84032l-0.4412,0c0,0 -4.46789,18.88413 -6.57603,25.39723c-2.01029,6.21128 -7.19808,9.05519 -14.60671,9.05519c0,0.00082 4.62166,-16.52852 5.93651,-22.16154" fill="#fcf7f7"/>
  <ellipse ry="6.25" rx="6.25" id="svg_11" cy="69.10699" cx="281.28806" stroke-linecap="null" stroke-linejoin="null" stroke-dasharray="null" stroke-width="null" fill="#D75EA1"/>
  <ellipse id="svg_6" ry="6.25" rx="6.25" cy="71.661" cx="86.09351" stroke-linecap="null" stroke-linejoin="null" stroke-dasharray="null" stroke-width="null" fill="#ffffff"/>
 </g>
</svg>